<svg xmlns="http://www.w3.org/2000/svg" xmlns:xlink="http://www.w3.org/1999/xlink" version="1.1" style="enable-background:new 0 0 512 512;" xml:space="preserve" width="512" height="512"><rect id="backgroundrect" width="100%" height="100%" x="0" y="0" fill="none" stroke="none"/>
















<g class="currentLayer" style=""><title>Layer 1</title><g id="svg_1" class="selected" fill="#ffffff" fill-opacity="1">
	<g id="svg_2" fill="#ffffff" fill-opacity="1">
		<path d="M447.988,139.696c-0.156-2.084-1.9-3.696-3.988-3.696h-72v-20C372,52.036,319.96,0,256,0S140,52.036,140,116v20H68    c-2.088,0-3.832,1.612-3.988,3.696l-28,368c-0.084,1.108,0.296,2.204,1.056,3.02C37.824,511.536,38.888,512,40,512h432    c1.112,0,2.176-0.464,2.932-1.28c0.756-0.816,1.14-1.912,1.056-3.02L447.988,139.696z M172,116c0-46.316,37.68-84,84-84    s84,37.684,84,84v20H172V116z M156,248c-22.06,0-40-17.944-40-40c0-15.964,8-30.348,24-36.66V208c0,8.824,7.18,16,16,16    s16-7.176,16-16v-36.636c16,6.312,24,20.804,24,36.636C196,230.056,178.06,248,156,248z M356,248c-22.06,0-40-17.944-40-40    c0-15.964,8-30.348,24-36.66V208c0,8.824,7.18,16,16,16s16-7.176,16-16v-36.636c16,6.312,24,20.804,24,36.636    C396,230.056,378.06,248,356,248z" id="svg_3" fill="#ffffff" fill-opacity="1"/>
	</g>
</g><g id="svg_4">
</g><g id="svg_5">
</g><g id="svg_6">
</g><g id="svg_7">
</g><g id="svg_8">
</g><g id="svg_9">
</g><g id="svg_10">
</g><g id="svg_11">
</g><g id="svg_12">
</g><g id="svg_13">
</g><g id="svg_14">
</g><g id="svg_15">
</g><g id="svg_16">
</g><g id="svg_17">
</g><g id="svg_18">
</g></g></svg>